<svg width="77" height="26" viewBox="0 0 77 26" fill="none" xmlns="http://www.w3.org/2000/svg">
<path fill-rule="evenodd" clip-rule="evenodd" d="M13.051 26C5.843 26 0 20.18 0 13C0 5.82 5.843 0 13.051 0C20.259 0 26.102 5.82 26.102 13C26.102 20.18 20.259 26 13.051 26ZM14.275 9.351C14.275 8.717 14.338 8.377 15.291 8.377H16.563V5.946H14.527C12.082 5.946 11.221 7.126 11.221 9.108V10.568H9.696V12.999H11.221V20.052H14.272V12.999H16.307L16.578 10.568H14.272L14.275 9.351Z" fill="white"/>
<path fill-rule="evenodd" clip-rule="evenodd" d="M63.061 26C55.853 26 50.01 20.18 50.01 13C50.01 5.82 55.853 0 63.061 0C70.269 0 76.112 5.82 76.112 13C76.112 20.18 70.269 26 63.061 26ZM70.465 7.649C69.843 7.992 69.155 8.242 68.423 8.377C67.837 7.793 67.002 7.43 66.077 7.43C64.302 7.43 62.863 8.773 62.863 10.43C62.863 10.665 62.891 10.895 62.946 11.113C60.275 10.988 57.906 9.794 56.321 7.978C56.044 8.422 55.886 8.937 55.886 9.487C55.886 10.528 56.453 11.447 57.316 11.985C56.789 11.969 56.293 11.834 55.86 11.609C55.86 11.622 55.86 11.634 55.86 11.647C55.86 13.101 56.968 14.314 58.438 14.589C58.169 14.658 57.884 14.694 57.591 14.694C57.384 14.694 57.183 14.676 56.986 14.641C57.395 15.832 58.582 16.7 59.989 16.725C58.889 17.529 57.503 18.009 55.997 18.009C55.738 18.009 55.482 17.995 55.23 17.968C56.653 18.818 58.343 19.315 60.157 19.315C66.07 19.315 69.303 14.742 69.303 10.778C69.303 10.647 69.299 10.518 69.293 10.389C69.921 9.966 70.466 9.438 70.897 8.837C70.321 9.076 69.701 9.236 69.051 9.309C69.715 8.937 70.224 8.349 70.465 7.649Z" fill="white"/>
</svg>
